<svg xmlns="http://www.w3.org/2000/svg" width="166.504" height="165.983" viewBox="0 0 166.504 165.983">
  <g id="noun-storage-capacity-1871639" transform="translate(-71.877 -5.168)">
    <path id="Caminho_1" data-name="Caminho 1" d="M240.807,102.318c0-11.967-18.732-21.333-42.925-21.333s-42.928,9.366-42.928,21.333v65.3c-3.382-3.122-8.585-5.723-14.83-7.805l4.422-4.422a2.374,2.374,0,0,0,.52-2.862,2.5,2.5,0,0,0-2.341-1.561H134.4l0-65.821a2.6,2.6,0,1,0-5.2,0v68.684a2.459,2.459,0,0,0,2.6,2.6h4.683L117.23,175.426,98.239,156.434h4.683a2.459,2.459,0,0,0,2.6-2.6V85.148a2.6,2.6,0,1,0-5.2,0V150.97H91.735a2.276,2.276,0,0,0-2.341,1.561,2.374,2.374,0,0,0,.52,2.862l4.422,4.422C81.848,163.716,74.3,170.22,74.3,177.765V202.74c0,11.967,18.732,21.333,42.925,21.333,18.732,0,34.34-5.723,40.325-13.788,5.984,8.065,21.593,13.788,40.325,13.788,24.2,0,42.925-9.366,42.925-21.333,0-2.861,0-96.26,0-100.421Zm-80.648,75.188v-14.83c7.285,6.5,21.333,10.927,37.722,10.927s30.439-4.422,37.722-10.927v14.83c0,7.545-15.609,16.13-37.722,16.13s-37.722-8.325-37.722-16.13Zm37.722-8.846c-22.113,0-37.722-8.585-37.722-16.13V137.7c7.285,6.5,21.333,10.927,37.722,10.927s30.439-4.422,37.722-10.927v14.83C235.6,160.074,219.995,168.66,197.882,168.66Zm0-25.236c-22.113,0-37.722-8.585-37.722-16.13v-14.83c7.285,6.5,21.333,10.927,37.722,10.927s30.439-4.422,37.722-10.927v14.83C235.6,134.839,219.995,143.425,197.882,143.425Zm0-57.236c22.113,0,37.722,8.585,37.722,16.13s-15.609,16.13-37.722,16.13-37.722-8.585-37.722-16.13S175.768,86.189,197.882,86.189ZM98.5,163.977l16.91,16.911a2.514,2.514,0,0,0,3.643,0l16.91-16.911c11.447,2.862,18.991,8.325,18.991,13.788,0,7.805-15.089,16.13-37.722,16.13s-37.722-8.325-37.722-16.13c0-5.464,7.544-10.927,18.991-13.788Zm18.732,54.9c-22.113,0-37.722-8.585-37.722-16.13v-14.83c7.285,6.5,21.333,10.927,37.722,10.927s30.439-4.422,37.722-10.927v14.83C154.953,210.547,139.344,218.873,117.231,218.873Zm80.651,0c-22.113,0-37.722-8.585-37.722-16.13v-14.83c7.285,6.5,21.333,10.927,37.722,10.927s30.439-4.422,37.722-10.927v14.83C235.6,210.547,220,218.873,197.882,218.873Z" transform="translate(-2.426 -52.923)" fill="#004c99"/>
    <path id="Caminho_2" data-name="Caminho 2" d="M210.445,269.37a2.459,2.459,0,0,0,2.6-2.6v-16.91a2.6,2.6,0,0,0-5.2,0v16.91A2.609,2.609,0,0,0,210.445,269.37Z" transform="translate(-95.64 -168.984)" fill="#004c99"/>
    <path id="Caminho_3" data-name="Caminho 3" d="M210.445,115.121a2.459,2.459,0,0,0,2.6-2.6V75.838a2.6,2.6,0,1,0-5.2,0v36.684a2.459,2.459,0,0,0,2.6,2.6Z" transform="translate(-95.64 -47.513)" fill="#004c99"/>
    <path id="Caminho_4" data-name="Caminho 4" d="M210.445,20.778a2.459,2.459,0,0,0,2.6-2.6V7.77a2.6,2.6,0,1,0-5.2,0V18.176A2.609,2.609,0,0,0,210.445,20.778Z" transform="translate(-95.64)" fill="#004c99"/>
  </g>
</svg>
