<svg xmlns="http://www.w3.org/2000/svg" width="199.747" height="199.703" viewBox="0 0 199.747 199.703">
  <g id="noun-energy-3016793" transform="translate(-70 -0.059)">
    <path id="Caminho_1" data-name="Caminho 1" d="M256.2,221.749l17.622-24.706L306.65,151.02l9.384-13.158H288.009l3.2-28.364,3.5-30.975-18.474,25.109-33.92,46.094-9.753,13.256h28.6l-2.408,28.525Zm-7.174-67.085,33.92-46.1L278.7,146.189h21.182L267.05,192.212l3.17-37.548Z" transform="translate(-104.58 -50.477)" fill="#004c99"/>
    <path id="Caminho_2" data-name="Caminho 2" d="M134.246,15.57A91.449,91.449,0,0,1,234.594,35.19q3.114,3.118,5.895,6.483H219.8a4.16,4.16,0,0,0,0,8.321h29.021a4.246,4.246,0,0,0,.837-.082c.052-.013.1-.028.152-.04.082-.021.164-.04.247-.064l.046-.018a4.16,4.16,0,0,0,2.847-3.468,4.364,4.364,0,0,0,.031-.488V16.7a4.16,4.16,0,0,0-8.321,0V33.75A99.6,99.6,0,0,0,169.872.059c-55,0-99.629,44.91-99.872,99.85a4.171,4.171,0,0,0,8.342,0,91.64,91.64,0,0,1,55.9-84.339Z" transform="translate(0 0)" fill="#004c99"/>
    <path id="Caminho_3" data-name="Caminho 3" d="M295.829,268.34a4.178,4.178,0,0,0-4.181,4.16A91.5,91.5,0,0,1,135.4,337.222q-3.114-3.118-5.895-6.483h20.692a4.16,4.16,0,0,0,0-8.321H121.172a4.247,4.247,0,0,0-.837.082c-.052.013-.1.028-.152.04-.082.021-.167.04-.247.064l-.046.018a4.163,4.163,0,0,0-2.847,3.468,4.364,4.364,0,0,0-.031.488V355.71a4.16,4.16,0,1,0,8.321,0V338.66a99.6,99.6,0,0,0,74.786,33.691c55,0,99.629-44.91,99.872-99.85a4.162,4.162,0,0,0-4.162-4.16Z" transform="translate(-30.244 -172.589)" fill="#004c99"/>
  </g>
</svg>
