<svg xmlns="http://www.w3.org/2000/svg" width="168" height="168" viewBox="0 0 168 168">
  <g id="noun-time-interval-2318343" transform="translate(-81.255 -28)">
    <path id="Caminho_1" data-name="Caminho 1" d="M182,28a84,84,0,1,0,84,84A84.1,84.1,0,0,0,182,28Zm0,161.373A77.373,77.373,0,1,1,259.373,112,77.462,77.462,0,0,1,182,189.373Z" transform="translate(-16.745)" fill="#004c99"/>
    <path id="Caminho_2" data-name="Caminho 2" d="M419.1,121.62l-1.391.973.927,3.29,1.669.094a1.332,1.332,0,0,1,1.206,1.391l-.138,1.669,3.151,1.344,1.112-1.251a1.279,1.279,0,0,1,1.854-.094l1.251,1.159,3.013-1.622-.279-1.669a1.277,1.277,0,0,1,1.066-1.484l1.669-.279.6-3.384-1.484-.788a1.282,1.282,0,0,1-.464-1.762l.835-1.484-2.272-2.6-1.576.65a1.344,1.344,0,0,1-1.669-.741l-.6-1.576-3.43.185-.464,1.622a1.293,1.293,0,0,1-1.622.882l-1.622-.509-1.993,2.781.973,1.391a1.278,1.278,0,0,1-.323,1.809Zm7.092-1.9a2.226,2.226,0,0,1,2.225,2.225,2.2,2.2,0,0,1-2.225,2.225,2.225,2.225,0,0,1-2.225-2.225A2.2,2.2,0,0,1,426.191,119.72Z" transform="translate(-229.884 -56.973)" fill="#004c99"/>
    <path id="Caminho_3" data-name="Caminho 3" d="M446.546,190.756l-2.272-2.6-1.576.65a1.344,1.344,0,0,1-1.669-.741l-.6-1.576-3.428.182-.464,1.622a1.293,1.293,0,0,1-1.622.882l-1.622-.509-1.993,2.781.973,1.391a1.279,1.279,0,0,1-.324,1.807l-1.391.973.927,3.29,1.669.094a1.332,1.332,0,0,1,1.206,1.391l-.138,1.669,3.151,1.344,1.112-1.251a1.279,1.279,0,0,1,1.854-.094l1.251,1.159L444.6,201.6l-.279-1.669a1.277,1.277,0,0,1,1.066-1.484l1.669-.279.6-3.384L446.175,194a1.282,1.282,0,0,1-.464-1.762Zm-7.508,6.441a2.226,2.226,0,0,1-2.225-2.225,2.2,2.2,0,0,1,2.225-2.225,2.226,2.226,0,0,1,2.225,2.225A2.2,2.2,0,0,1,439.038,197.2Z" transform="translate(-238.447 -105.663)" fill="#004c99"/>
    <path id="Caminho_4" data-name="Caminho 4" d="M428.282,284.651l.6-3.384-1.484-.788a1.282,1.282,0,0,1-.464-1.762l.835-1.484-2.272-2.6-1.576.65a1.344,1.344,0,0,1-1.669-.741l-.6-1.576-3.43.185-.464,1.622a1.293,1.293,0,0,1-1.622.882l-1.622-.509-1.993,2.781.973,1.391a1.279,1.279,0,0,1-.324,1.807l-1.391.973.927,3.29,1.669.094a1.332,1.332,0,0,1,1.206,1.391l-.138,1.669,3.151,1.344,1.112-1.251a1.279,1.279,0,0,1,1.854-.094l1.251,1.159,3.013-1.622-.279-1.669a1.277,1.277,0,0,1,1.066-1.484Zm-8.017-.974a2.226,2.226,0,0,1-2.225-2.225,2.2,2.2,0,0,1,2.225-2.225,2.226,2.226,0,0,1,2.225,2.225A2.2,2.2,0,0,1,420.265,283.677Z" transform="translate(-225.93 -163.314)" fill="#004c99"/>
    <path id="Caminho_5" data-name="Caminho 5" d="M409.658,168.719c.634.335,1.26.687,1.874,1.053a1.093,1.093,0,0,0,.565.156,1.1,1.1,0,0,0,.568-2.052q-.971-.582-1.98-1.112a1.1,1.1,0,1,0-1.026,1.954Z" transform="translate(-224.122 -92.426)" fill="#004c99"/>
    <path id="Caminho_6" data-name="Caminho 6" d="M393.566,161.738a1.1,1.1,0,0,0,1.434-.622,1.1,1.1,0,0,0-.621-1.432q-1.055-.414-2.137-.775a1.1,1.1,0,1,0-.694,2.1c.68.225,1.355.47,2.018.733Z" transform="translate(-211.938 -87.234)" fill="#004c99"/>
    <path id="Caminho_7" data-name="Caminho 7" d="M431.115,368.85q-.8.723-1.632,1.4a1.106,1.106,0,0,0,1.4,1.714q.877-.715,1.715-1.477a1.1,1.1,0,0,0-1.482-1.639Z" transform="translate(-237.463 -227.044)" fill="#004c99"/>
    <path id="Caminho_8" data-name="Caminho 8" d="M446.67,354.362a1.106,1.106,0,0,0-1.553.168q-.674.84-1.391,1.641a1.1,1.1,0,1,0,1.646,1.469q.754-.846,1.465-1.727A1.1,1.1,0,0,0,446.67,354.362Z" transform="translate(-247.041 -217.412)" fill="#004c99"/>
    <path id="Caminho_9" data-name="Caminho 9" d="M426.264,179.271c.573.434,1.133.879,1.68,1.342a1.1,1.1,0,0,0,1.556-.13,1.106,1.106,0,0,0-.133-1.557q-.867-.73-1.771-1.417a1.1,1.1,0,1,0-1.332,1.762Z" transform="translate(-235.295 -99.524)" fill="#004c99"/>
    <path id="Caminho_10" data-name="Caminho 10" d="M376.9,399.475a1.2,1.2,0,0,0,.224-.022c.741-.154,1.478-.324,2.207-.517a1.1,1.1,0,0,0-.56-2.137c-.69.181-1.389.345-2.092.49a1.1,1.1,0,0,0,.221,2.186Z" transform="translate(-201.94 -245.842)" fill="#004c99"/>
    <path id="Caminho_11" data-name="Caminho 11" d="M357.141,400.375a1.1,1.1,0,0,0,.043,2.207h.047q1.139-.045,2.263-.154a1.1,1.1,0,0,0,.995-1.2,1.093,1.093,0,0,0-1.2-.995Q358.224,400.331,357.141,400.375Z" transform="translate(-188.799 -248.148)" fill="#004c99"/>
    <path id="Caminho_12" data-name="Caminho 12" d="M395.949,393.239a1.123,1.123,0,0,0,.393-.073c.706-.268,1.4-.559,2.092-.865a1.1,1.1,0,0,0-.9-2.018c-.651.289-1.312.564-1.98.818a1.106,1.106,0,0,0,.395,2.138Z" transform="translate(-214.641 -241.459)" fill="#004c99"/>
    <path id="Caminho_13" data-name="Caminho 13" d="M374.533,156.76a1.087,1.087,0,0,0,.232.025A1.1,1.1,0,0,0,375,154.6c-.737-.156-1.48-.3-2.23-.413a1.1,1.1,0,0,0-.341,2.182Q373.488,156.534,374.533,156.76Z" transform="translate(-199.072 -84.116)" fill="#004c99"/>
    <path id="Caminho_14" data-name="Caminho 14" d="M413.857,384.055a1.087,1.087,0,0,0,.552-.15q.98-.568,1.928-1.187a1.1,1.1,0,0,0-1.207-1.85c-.6.391-1.21.767-1.829,1.125a1.106,1.106,0,0,0,.556,2.062Z" transform="translate(-226.578 -235.125)" fill="#004c99"/>
    <path id="Caminho_15" data-name="Caminho 15" d="M337.473,399.895a1.1,1.1,0,1,0-.266,2.193q1.125.137,2.259.211h.074a1.1,1.1,0,0,0,.073-2.2C338.9,400.046,338.183,399.981,337.473,399.895Z" transform="translate(-175.568 -247.925)" fill="#004c99"/>
    <path id="Caminho_16" data-name="Caminho 16" d="M320.27,396.523c-.7-.163-1.392-.341-2.081-.539a1.1,1.1,0,0,0-.609,2.122c.724.21,1.458.4,2.193.569a1.187,1.187,0,0,0,.25.029,1.1,1.1,0,0,0,.247-2.181Z" transform="translate(-162.599 -245.293)" fill="#004c99"/>
    <path id="Caminho_17" data-name="Caminho 17" d="M455.98,341.63a1.1,1.1,0,0,0,1.527-.332c.409-.634.8-1.283,1.176-1.94a1.1,1.1,0,1,0-1.917-1.094q-.535.936-1.115,1.841a1.1,1.1,0,0,0,.328,1.525Z" transform="translate(-255.061 -206.47)" fill="#004c99"/>
    <path id="Caminho_18" data-name="Caminho 18" d="M282.7,379.253a1.1,1.1,0,0,0-1.249,1.819c.621.427,1.258.839,1.9,1.23a1.088,1.088,0,0,0,.573.16,1.1,1.1,0,0,0,.574-2.048c-.609-.367-1.212-.758-1.8-1.161Z" transform="translate(-138.728 -234.039)" fill="#004c99"/>
    <path id="Caminho_19" data-name="Caminho 19" d="M265.841,366.925a1.1,1.1,0,0,0,.039,1.562q.822.781,1.684,1.518A1.1,1.1,0,1,0,269,368.328q-.814-.7-1.6-1.439a1.1,1.1,0,0,0-1.56.036Z" transform="translate(-128.436 -225.722)" fill="#004c99"/>
    <path id="Caminho_20" data-name="Caminho 20" d="M299.782,389.038a1.1,1.1,0,1,0-.94,2q1.025.482,2.074.911a1.1,1.1,0,0,0,.837-2.044q-1-.406-1.971-.865Z" transform="translate(-150.216 -240.621)" fill="#004c99"/>
    <path id="Caminho_21" data-name="Caminho 21" d="M465.514,323.9a1.088,1.088,0,0,0,.44.094,1.107,1.107,0,0,0,1.013-.663q.453-1.039.852-2.1a1.1,1.1,0,1,0-2.068-.775q-.379,1.012-.809,2A1.106,1.106,0,0,0,465.514,323.9Z" transform="translate(-261.312 -194.488)" fill="#004c99"/>
    <path id="Caminho_22" data-name="Caminho 22" d="M476.863,284.308q.1-1.125.138-2.264a1.1,1.1,0,0,0-1.066-1.141,1.159,1.159,0,0,0-1.141,1.066q-.037,1.078-.13,2.143a1.1,1.1,0,0,0,1,1.2c.031,0,.065,0,.1,0A1.1,1.1,0,0,0,476.863,284.308Z" transform="translate(-267.851 -168.601)" fill="#004c99"/>
    <path id="Caminho_23" data-name="Caminho 23" d="M472.31,242.435a1.1,1.1,0,1,0-2.121.616q.3,1.027.547,2.079a1.105,1.105,0,0,0,1.073.852,1.056,1.056,0,0,0,.254-.03,1.105,1.105,0,0,0,.822-1.329q-.256-1.1-.574-2.187Z" transform="translate(-264.842 -142.425)" fill="#004c99"/>
    <path id="Caminho_24" data-name="Caminho 24" d="M473.492,304.159q.279-1.1.5-2.212a1.1,1.1,0,1,0-2.165-.428q-.211,1.059-.474,2.094a1.1,1.1,0,0,0,.8,1.344,1.158,1.158,0,0,0,.275.034,1.1,1.1,0,0,0,1.068-.831Z" transform="translate(-265.623 -181.752)" fill="#004c99"/>
    <path id="Caminho_25" data-name="Caminho 25" d="M474.172,262.324q.131,1.064.211,2.141a1.1,1.1,0,0,0,1.1,1.025h.082a1.1,1.1,0,0,0,1.021-1.181q-.082-1.135-.223-2.253a1.1,1.1,0,0,0-2.19.27Z" transform="translate(-267.52 -155.391)" fill="#004c99"/>
    <path id="Caminho_26" data-name="Caminho 26" d="M414.593,330.751q.795-.832,1.518-1.725a1.1,1.1,0,0,0-1.716-1.391q-.67.822-1.4,1.59a1.1,1.1,0,1,0,1.6,1.526Z" transform="translate(-226.538 -199.484)" fill="#004c99"/>
    <path id="Caminho_27" data-name="Caminho 27" d="M364.421,357.3a1.1,1.1,0,0,0-1.258-.924c-.693.107-1.392.185-2.1.233a1.1,1.1,0,0,0,.077,2.207h.078q1.156-.082,2.285-.254A1.108,1.108,0,0,0,364.421,357.3Z" transform="translate(-191.432 -218.905)" fill="#004c99"/>
    <path id="Caminho_28" data-name="Caminho 28" d="M395.032,207.326a1.105,1.105,0,0,0,.4,1.51q.918.531,1.79,1.135a1.094,1.094,0,0,0,.628.2,1.1,1.1,0,0,0,.629-2.01q-.943-.654-1.94-1.232a1.1,1.1,0,0,0-1.51.4Z" transform="translate(-214.667 -119.183)" fill="#004c99"/>
    <path id="Caminho_29" data-name="Caminho 29" d="M325.477,352.4a1.1,1.1,0,0,0-.668-1.411c-.664-.237-1.32-.5-1.962-.793a1.1,1.1,0,1,0-.911,2.01q1.047.477,2.132.862a1.12,1.12,0,0,0,.371.065,1.1,1.1,0,0,0,1.039-.733Z" transform="translate(-165.602 -214.733)" fill="#004c99"/>
    <path id="Caminho_30" data-name="Caminho 30" d="M343.51,358.5a1.1,1.1,0,0,0,.1-2.2c-.706-.069-1.406-.167-2.1-.292a1.1,1.1,0,0,0-.393,2.174c.753.134,1.51.241,2.277.314a.789.789,0,0,0,.109.008Z" transform="translate(-178.221 -218.658)" fill="#004c99"/>
    <path id="Caminho_31" data-name="Caminho 31" d="M307.258,343.267a1.1,1.1,0,0,0,.613-2.023c-.586-.392-1.158-.809-1.708-1.247a1.1,1.1,0,1,0-1.375,1.727q.9.717,1.857,1.355a1.085,1.085,0,0,0,.613.189Z" transform="translate(-154.327 -207.837)" fill="#004c99"/>
    <path id="Caminho_32" data-name="Caminho 32" d="M431.348,253.693c.211.671.4,1.353.552,2.044a1.106,1.106,0,0,0,1.077.858,1.065,1.065,0,0,0,.246-.029,1.1,1.1,0,0,0,.832-1.322q-.258-1.125-.6-2.217a1.1,1.1,0,1,0-2.105.665Z" transform="translate(-238.943 -149.503)" fill="#004c99"/>
    <path id="Caminho_33" data-name="Caminho 33" d="M383.66,351.605a1.1,1.1,0,0,0-1.447-.585c-.647.275-1.307.525-1.979.745a1.1,1.1,0,1,0,.691,2.1q1.1-.361,2.151-.81A1.1,1.1,0,0,0,383.66,351.605Z" transform="translate(-204.395 -215.289)" fill="#004c99"/>
    <path id="Caminho_34" data-name="Caminho 34" d="M423.222,235.921q.555.9,1.034,1.846a1.1,1.1,0,0,0,1.97-1c-.345-.685-.723-1.353-1.122-2.005a1.1,1.1,0,1,0-1.882,1.159Z" transform="translate(-233.45 -137.491)" fill="#004c99"/>
    <path id="Caminho_35" data-name="Caminho 35" d="M401.171,341.444a1.1,1.1,0,0,0-1.547-.215c-.564.426-1.142.829-1.74,1.208a1.1,1.1,0,1,0,1.182,1.865q.971-.615,1.889-1.309a1.109,1.109,0,0,0,.215-1.549Z" transform="translate(-216.325 -208.67)" fill="#004c99"/>
    <path id="Caminho_36" data-name="Caminho 36" d="M376.649,199.9a1.1,1.1,0,0,0,.77,1.359q1.025.285,2.012.651a1.1,1.1,0,1,0,.77-2.07q-1.076-.4-2.187-.707a1.106,1.106,0,0,0-1.363.767Z" transform="translate(-202.484 -114.065)" fill="#004c99"/>
    <path id="Caminho_37" data-name="Caminho 37" d="M412.471,222.187a1.105,1.105,0,0,0,1.669-1.449q-.754-.867-1.577-1.673a1.1,1.1,0,1,0-1.544,1.581c.5.494.99,1.008,1.452,1.542Z" transform="translate(-225.203 -127.167)" fill="#004c99"/>
    <path id="Caminho_38" data-name="Caminho 38" d="M163.209,273.372a3.313,3.313,0,0,0-3.314-3.314H142.358a3.314,3.314,0,1,0,0,6.628H159.9A3.313,3.313,0,0,0,163.209,273.372Z" transform="translate(-44.108 -161.372)" fill="#004c99"/>
    <path id="Caminho_39" data-name="Caminho 39" d="M309.812,134.922h-11.3a57.034,57.034,0,0,0-17.659-38.367l-.944.156.387,2.319-.052.029A54.853,54.853,0,0,1,296.3,134.923h-4.025a3.314,3.314,0,1,0,0,6.628H296.3A54.92,54.92,0,0,1,244.563,193v-4.937a3.314,3.314,0,0,0-6.628,0v4.9a54.561,54.561,0,0,1-40.983-22.837l11.74-7.025a1.1,1.1,0,0,0,.211.839q.689.9,1.419,1.766a1.1,1.1,0,1,0,1.686-1.428q-.691-.818-1.348-1.676a1.1,1.1,0,0,0-.509-.371l11.523-6.893c.426.556.862,1.1,1.314,1.635a1.1,1.1,0,1,0,1.686-1.428c-.371-.439-.73-.895-1.086-1.352l23.535-14.081,0-56.433a53.937,53.937,0,0,1,15.056,3.538l1.327-1.852a56.182,56.182,0,0,0-16.384-3.893v-10.8a3.314,3.314,0,0,0-6.628,0v65.687l-52.007,31.115a3.313,3.313,0,1,0,3.4,5.686l3.163-1.891a56.751,56.751,0,0,0,42.887,23.914V205.6a3.314,3.314,0,0,0,6.628,0V195.215a57.134,57.134,0,0,0,53.947-53.667h11.3a3.314,3.314,0,1,0,0-6.628Z" transform="translate(-75.994 -26.236)" fill="#004c99"/>
  </g>
</svg>
