<svg xmlns="http://www.w3.org/2000/svg" width="65.465" height="82.052" viewBox="0 0 65.465 82.052">
  <g id="noun-pdf-4024080" transform="translate(-78.395 -0.003)">
    <path id="Caminho_1" data-name="Caminho 1" d="M190.9,43.417h-5.769V14.186a1.2,1.2,0,0,0-.353-.849L171.8.355A1.2,1.2,0,0,0,170.953,0H130.248a3.608,3.608,0,0,0-3.59,3.606v74.84a3.611,3.611,0,0,0,3.606,3.606h51.3a3.611,3.611,0,0,0,3.606-3.606V71.462h5.753a1.211,1.211,0,0,0,1.2-1.2V44.618a1.225,1.225,0,0,0-1.218-1.2ZM172.171,4.105l8.878,8.878h-8.878Zm10.577,74.344a1.211,1.211,0,0,1-1.2,1.2H130.263a1.211,1.211,0,0,1-1.2-1.2V3.608a1.211,1.211,0,0,1,1.2-1.2h39.5V14.185a1.211,1.211,0,0,0,1.2,1.2h11.779v28.03H141.562a1.211,1.211,0,0,0-1.2,1.2V70.26a1.211,1.211,0,0,0,1.2,1.2h41.2v6.987Zm6.955-9.391H142.747V45.821H189.7Z" transform="translate(-48.263)" fill="#004c99"/>
    <path id="Caminho_2" data-name="Caminho 2" d="M221.379,146.228h28.75a1.2,1.2,0,1,0,0-2.4h-28.75a1.2,1.2,0,1,0,0,2.4Z" transform="translate(-128.079 -122.748)" fill="#004c99"/>
    <path id="Caminho_3" data-name="Caminho 3" d="M221.379,194.578h28.75a1.2,1.2,0,1,0,0-2.4h-28.75a1.2,1.2,0,1,0,0,2.4Z" transform="translate(-128.079 -164.014)" fill="#004c99"/>
    <path id="Caminho_4" data-name="Caminho 4" d="M221.379,243.908h28.767a1.2,1.2,0,0,0,0-2.4H221.379a1.211,1.211,0,0,0-1.2,1.2A1.19,1.19,0,0,0,221.379,243.908Z" transform="translate(-128.079 -206.116)" fill="#004c99"/>
    <path id="Caminho_5" data-name="Caminho 5" d="M275.949,350.353a1.211,1.211,0,0,0,1.2-1.2V342.9h3.894a3.83,3.83,0,0,0,3.83-3.83v-2.2a3.83,3.83,0,0,0-3.83-3.83h-5.1a1.211,1.211,0,0,0-1.2,1.2v14.9a1.2,1.2,0,0,0,1.2,1.2Zm1.2-14.92h3.894a1.429,1.429,0,0,1,1.426,1.426v2.2a1.429,1.429,0,0,1-1.426,1.426h-3.894Z" transform="translate(-174.654 -284.244)" fill="#004c99"/>
    <path id="Caminho_6" data-name="Caminho 6" d="M453.139,350.353a1.211,1.211,0,0,0,1.2-1.2V342.9h6.523a1.2,1.2,0,0,0,0-2.4h-6.523v-5.048h6.523a1.2,1.2,0,1,0,0-2.4h-7.724a1.211,1.211,0,0,0-1.2,1.2v14.9a1.211,1.211,0,0,0,1.2,1.2Z" transform="translate(-325.882 -284.245)" fill="#004c99"/>
    <path id="Caminho_7" data-name="Caminho 7" d="M363.339,350.259h5.1a3.83,3.83,0,0,0,3.83-3.83v-9.664a3.83,3.83,0,0,0-3.83-3.83h-5.1a1.211,1.211,0,0,0-1.2,1.2v14.92a1.211,1.211,0,0,0,1.2,1.2Zm1.2-14.92h3.894a1.429,1.429,0,0,1,1.426,1.426v9.664a1.429,1.429,0,0,1-1.426,1.426h-3.894Z" transform="translate(-249.239 -284.15)" fill="#004c99"/>
  </g>
</svg>
