<svg xmlns="http://www.w3.org/2000/svg" width="179.516" height="179.793" viewBox="0 0 179.516 179.793">
  <g id="noun-precision-2034905" transform="translate(-73.063 -7.637)">
    <path id="Caminho_1" data-name="Caminho 1" d="M267.109,185.615a2.549,2.549,0,0,0,0-3.361c-1.68-1.96-35.848-45.648-79.254-45.648S110.28,180.574,108.6,182.534a2.549,2.549,0,0,0,0,3.361c1.68,1.68,35.848,45.367,79.254,45.367S265.429,187.575,267.109,185.615Zm-79.254,40.327c-36.125,0-66.653-33.887-73.373-42.007,6.722-7.842,37.247-42.007,73.373-42.007s66.933,34.168,73.373,42.007C254.505,192.056,223.98,225.942,187.855,225.942Z" transform="translate(-24.893 -86.401)" fill="#004c99"/>
    <path id="Caminho_2" data-name="Caminho 2" d="M276.425,178.86a33.307,33.307,0,0,0-27.445,27.445,33.71,33.71,0,0,0,33.046,39.208,41.805,41.805,0,0,0,5.88-.56,33.542,33.542,0,0,0-11.481-66.094Zm33.326,37.809a28.269,28.269,0,0,1-55.73-9.523,27.959,27.959,0,0,1,22.964-22.964C296.589,181.1,312.833,197.345,309.751,216.669Z" transform="translate(-119.064 -114.373)" fill="#004c99"/>
    <path id="Caminho_3" data-name="Caminho 3" d="M331.565,248.18c-6.441,1.12-9.522-4.48-8.121-9.522a2.992,2.992,0,0,0-2.519-3.641,14.705,14.705,0,1,0,13.723,15.961,3.179,3.179,0,0,0-.841-2.241,5.308,5.308,0,0,0-2.242-.558Zm-5.6,8.681a9.061,9.061,0,1,1-8.4-15.683c0,6.441,3.921,12.042,10.642,12.6a5.865,5.865,0,0,1-2.241,3.08Z" transform="translate(-157.401 -152.326)" fill="#004c99"/>
    <path id="Caminho_4" data-name="Caminho 4" d="M499.912,375.03a2.806,2.806,0,0,0-2.8,2.8v50.13h-50.13a2.8,2.8,0,1,0,0,5.6H499.91a2.806,2.806,0,0,0,2.8-2.8V377.551a2.586,2.586,0,0,0-2.8-2.521Z" transform="translate(-250.134 -246.131)" fill="#004c99"/>
    <path id="Caminho_5" data-name="Caminho 5" d="M499.915,8.484H446.986a2.806,2.806,0,0,0-2.8,2.8,2.646,2.646,0,0,0,2.8,2.8h50.13v50.13a2.8,2.8,0,1,0,5.6,0V11.286a2.646,2.646,0,0,0-2.8-2.8Z" transform="translate(-250.137 -0.568)" fill="#004c99"/>
    <path id="Caminho_6" data-name="Caminho 6" d="M133.642,427.386H83.232v-50.41a2.806,2.806,0,0,0-2.8-2.8,2.646,2.646,0,0,0-2.8,2.8V429.9a2.806,2.806,0,0,0,2.8,2.8H133.36a2.806,2.806,0,0,0,2.8-2.8,2.51,2.51,0,0,0-2.521-2.521Z" transform="translate(-4.568 -245.558)" fill="#004c99"/>
    <path id="Caminho_7" data-name="Caminho 7" d="M81.288,66.168a2.806,2.806,0,0,0,2.8-2.8V13.238h50.13a2.806,2.806,0,0,0,2.8-2.8,2.646,2.646,0,0,0-2.8-2.8H81.289a3.053,3.053,0,0,0-2.8,3.08V63.646a2.586,2.586,0,0,0,2.8,2.521Z" transform="translate(-5.143)" fill="#004c99"/>
  </g>
</svg>
