<svg xmlns="http://www.w3.org/2000/svg" width="101.414" height="115.078" viewBox="0 0 101.414 115.078">
  <g id="noun-sensor-1738190" transform="translate(-126.343 -149.237)">
    <path id="Caminho_1" data-name="Caminho 1" d="M338.511,261.35a7.172,7.172,0,0,0-3.619,13.379v58.514h7.237V274.729a7.172,7.172,0,0,0-3.619-13.379Z" transform="translate(-161.46 -68.928)" fill="#004c99"/>
    <path id="Caminho_2" data-name="Caminho 2" d="M269.063,149.238a50.6,50.6,0,0,0-50.708,50.445,50.028,50.028,0,0,0,14.87,35.618l5.132-5.11a43.47,43.47,0,1,1,61.409-.089l5.132,5.11a50.026,50.026,0,0,0,14.87-35.618,50.6,50.6,0,0,0-50.708-50.357Z" transform="translate(-92.012)" fill="#004c99"/>
    <path id="Caminho_3" data-name="Caminho 3" d="M292.218,186.648a35.925,35.925,0,0,0-25.6,61.411l5.153-5.132h0a28.907,28.907,0,1,1,40.881,0l5.153,5.132h0a35.926,35.926,0,0,0-25.6-61.411Z" transform="translate(-115.167 -23)" fill="#004c99"/>
    <path id="Caminho_4" data-name="Caminho 4" d="M315.333,224a21.538,21.538,0,0,0-15.354,36.824l5.153-5.11h0a14.431,14.431,0,1,1,20.4,0l5.153,5.11h0A21.538,21.538,0,0,0,315.333,224Z" transform="translate(-138.282 -45.964)" fill="#004c99"/>
  </g>
</svg>
