<svg xmlns="http://www.w3.org/2000/svg" width="139.255" height="166.372" viewBox="0 0 139.255 166.372">
  <g id="noun-size-1748447" transform="translate(-88.209 -13.438)">
    <path id="Caminho_1" data-name="Caminho 1" d="M252,265.678h99.368V138.32H252Zm6.648-120.711H344.72V258.856H258.648Z" transform="translate(-124.778 -85.869)" fill="#004c99"/>
    <path id="Caminho_2" data-name="Caminho 2" d="M269.317,39.5l-7.173-7.173H337.37L330.2,39.5l4.724,4.724,15.4-15.4-15.4-15.4L330.2,18.162l7.173,7.173H262.144l7.173-7.173-4.724-4.724-15.4,15.4,15.4,15.4Z" transform="translate(-122.852)" fill="#004c99"/>
    <path id="Caminho_3" data-name="Caminho 3" d="M153.186,157.877l4.724-4.724-15.4-15.4-15.4,15.4,4.724,4.724,7.173-7.173V252.521l-7-7.348-4.724,4.724,15.4,15.4,15.4-15.4-4.9-4.724-7.172,7.348V150.7Z" transform="translate(-38.91 -85.483)" fill="#004c99"/>
  </g>
</svg>
