<svg xmlns="http://www.w3.org/2000/svg" width="85.995" height="57.57" viewBox="0 0 85.995 57.57">
  <g id="noun-temperature-1416966" transform="translate(-97.155 -173.25)">
    <path id="Caminho_1" data-name="Caminho 1" d="M223.071,226.868h-38.38a17.263,17.263,0,0,1-17.309-17.309,17.5,17.5,0,0,1,14.11-17.121h.188a17.34,17.34,0,0,1,13.17,3.01,2.674,2.674,0,0,0,1.129.376,1.711,1.711,0,0,0,1.505-.753,2.023,2.023,0,0,0-.376-2.634,20.772,20.772,0,0,0-12.417-3.951h-.564A19.323,19.323,0,0,1,221.19,196.2v.188a1.777,1.777,0,0,0,1.881,1.881,1.885,1.885,0,0,0,1.881-1.881,23.143,23.143,0,0,0-45.153-7.148,21.078,21.078,0,0,0,4.892,41.578h38.191a1.777,1.777,0,0,0,1.881-1.881,1.915,1.915,0,0,0-1.693-2.07Z" transform="translate(-66.465)" fill="#004c99"/>
    <path id="Caminho_2" data-name="Caminho 2" d="M460.27,235.093V211.011a1.777,1.777,0,0,0-1.881-1.881h-14.11a1.777,1.777,0,0,0-1.881,1.881v23.705a13.523,13.523,0,1,0,22.2,10.348A12.867,12.867,0,0,0,460.27,235.093Zm-9.219,19.943a9.849,9.849,0,0,1-5.644-17.873,1.711,1.711,0,0,0,.753-1.505V212.892h10.348v23.14a1.711,1.711,0,0,0,.753,1.505,9.622,9.622,0,0,1,3.763,7.714,10,10,0,0,1-9.971,9.783Z" transform="translate(-281.461 -28.165)" fill="#004c99"/>
    <path id="Caminho_3" data-name="Caminho 3" d="M493.631,243.25a1.777,1.777,0,0,0-1.881,1.881v27.281a1.881,1.881,0,1,0,3.763,0V245.131A1.885,1.885,0,0,0,493.631,243.25Z" transform="translate(-324.042 -54.949)" fill="#004c99"/>
  </g>
</svg>
