<svg xmlns="http://www.w3.org/2000/svg" width="120.519" height="131.479" viewBox="0 0 120.519 131.479">
  <g id="noun-usb-1563608" transform="translate(-78.619 -11.187)">
    <path id="Caminho_1" data-name="Caminho 1" d="M136.469,76.928a16.434,16.434,0,1,0-21.913,15.421v1.014a27.392,27.392,0,0,0,27.391,27.391h16.435v16.434a5.478,5.478,0,1,0,10.955,0V104.319h16.435a27.392,27.392,0,0,0,27.391-27.391h5.478a5.478,5.478,0,0,0,5.478-5.478V49.537a5.476,5.476,0,0,0-5.478-5.478H196.728a5.478,5.478,0,0,0-5.478,5.478V71.45a5.48,5.48,0,0,0,5.478,5.478h5.479a16.436,16.436,0,0,1-16.434,16.434H169.337V29.9l7.081,7.081a5.481,5.481,0,1,0,7.751-7.751L167.735,12.794a5.478,5.478,0,0,0-7.752,0L143.549,29.228a5.481,5.481,0,1,0,7.751,7.751l7.081-7.081v79.9H141.946a16.434,16.434,0,0,1-16.435-16.434V92.349a16.433,16.433,0,0,0,10.957-15.421Zm65.738-21.913h10.957V65.972H202.207ZM120.035,71.45a5.478,5.478,0,1,1-3.874,1.6A5.481,5.481,0,0,1,120.035,71.45Z" transform="translate(-24.982 0)" fill="#004c99"/>
  </g>
</svg>
