<svg xmlns="http://www.w3.org/2000/svg" width="176.171" height="176.171" viewBox="0 0 176.171 176.171">
  <g id="noun-warranty-64108" transform="translate(-80.135 -27.997)">
    <path id="Caminho_1" data-name="Caminho 1" d="M261.559,136.308c1.835-6.86,12.616-12.786,12.616-20.226s-10.781-13.366-12.614-20.226c-1.9-7.1,4.42-17.61.825-23.826-3.649-6.305-15.944-6.064-21.06-11.183s-4.876-17.412-11.183-21.06c-6.217-3.6-16.726,2.721-23.826.825C199.456,38.779,193.53,28,186.09,28s-13.366,10.781-20.226,12.614c-7.1,1.9-17.61-4.42-23.826-.825-6.305,3.649-6.064,15.944-11.183,21.06s-17.412,4.876-21.06,11.183c-3.6,6.217,2.721,16.726.825,23.826C108.786,102.717,98,108.643,98,116.083s10.781,13.366,12.614,20.226c1.9,7.1-4.42,17.61-.825,23.826,3.649,6.305,15.944,6.064,21.06,11.183s4.876,17.412,11.183,21.06c6.217,3.6,16.726-2.721,23.826-.825,6.861,1.834,12.787,12.615,20.227,12.615s13.366-10.781,20.226-12.614c7.1-1.9,17.61,4.42,23.826.825,6.305-3.649,6.064-15.944,11.183-21.06s17.412-4.876,21.06-11.183C265.981,153.918,259.662,143.409,261.559,136.308ZM174.7,146.053,149.7,120.887l12.145-12.222,13.217,13.294,35.633-35.846,11.792,11.864Z" transform="translate(-17.87)" fill="#004c99"/>
  </g>
</svg>
